<?xml version="1.0" encoding="UTF-8" standalone="no"?>
<svg
   xmlns:dc="http://purl.org/dc/elements/1.1/"
   xmlns:cc="http://creativecommons.org/ns#"
   xmlns:rdf="http://www.w3.org/1999/02/22-rdf-syntax-ns#"
   xmlns:svg="http://www.w3.org/2000/svg"
   xmlns="http://www.w3.org/2000/svg"
   viewBox="0 0 650.34998 139.2375"
   height="139.2375"
   width="650.34998"
   xml:space="preserve"
   version="1.1"
   id="svg2"><metadata
     id="metadata8"><rdf:RDF><cc:Work
         rdf:about=""><dc:format>image/svg+xml</dc:format><dc:type
           rdf:resource="http://purl.org/dc/dcmitype/StillImage" /></cc:Work></rdf:RDF></metadata><defs
     id="defs6" /><g
     transform="matrix(1.25,0,0,-1.25,0,139.2375)"
     id="g10"><g
       transform="scale(0.1,0.1)"
       id="g12"><path
         id="path14"
         style="fill:#58a0dc;fill-opacity:1;fill-rule:nonzero;stroke:none"
         d="m 482.813,555.512 c 0,-54.395 -17.54,-99.414 -52.129,-133.828 -34.606,-34.422 -76.387,-51.875 -124.2,-51.875 -49.48,0 -88.953,16.769 -120.664,51.261 -31.492,34.258 -47.461,79.285 -47.461,133.856 0,56.269 17.305,101.457 51.426,134.297 34.242,32.949 74.688,49.648 120.215,49.648 45.531,0 86.172,-16.902 120.801,-50.234 34.512,-33.242 52.012,-78.028 52.012,-133.125 z m 947.057,-169.297 0,468.164 -219.22,0 0,-119.024 87.9,0 0,-349.14 -140.72,0 0,468.164 -231.525,0 0,-119.024 100.195,0 0,-292.343 c -55.156,-45.469 -107.359,-68.516 -155.234,-68.516 -14.926,0 -26.836,3.848 -36.399,11.77 -9.484,7.839 -15.051,17.539 -17.012,29.636 -2.25,13.848 -3.386,41.7 -3.386,82.774 l 0,355.703 -333.414,0 0,-67.422 c -56.239,50.586 -120.192,76.211 -190.391,76.211 -76.57,0 -144.875,-28.855 -202.9921,-85.762 C 29.4961,720.434 0,644.789 0,552.582 0,468.363 26.6992,396.313 79.3594,338.434 132.262,280.277 201.582,250.785 285.391,250.785 c 45.976,0 88.957,10.449 127.738,31.055 27.773,14.758 50.516,30.39 67.926,46.672 l 0,-26.125 c 0,-36.492 -1.875,-62.598 -5.567,-77.586 -3.562,-14.406 -11.738,-30.02 -24.3,-46.406 -12.395,-16.165 -31.711,-30.227 -57.403,-41.79 -25.918,-11.66 -54.504,-17.578 -84.957,-17.578 -55.262,0 -107.215,18.614 -154.41,55.313 l -7.348,5.723 -6.226,-6.934 -72.6565,-80.8595 -7.2187,-8.0312 8.5664,-6.5781 C 136.641,26.1289 213.992,0 299.453,0 c 56.586,0 108.59,10.1406 154.574,30.1289 46.262,20.1328 81.578,45.4922 104.961,75.3711 23.309,29.797 38.239,59.555 44.387,88.461 5.977,28.094 9.008,71.473 9.008,128.934 l 0,412.46 70.758,0 0,-250.742 c 0,-60.164 4.175,-102.82 12.754,-130.41 8.867,-28.484 26.863,-51.973 53.5,-69.793 26.359,-17.648 59.867,-26.594 99.605,-26.594 56.758,0 116.395,21.758 177.5,64.707 l 0,-55.332 491.26,0 0,119.024 -87.89,0" /><path
         id="path16"
         style="fill:#58a0dc;fill-opacity:1;fill-rule:nonzero;stroke:none"
         d="m 1360.11,959.77 c 20.99,0 39.32,7.57 54.47,22.5 15.21,14.98 22.91,33.44 22.91,54.88 0,21.47 -7.72,39.85 -22.95,54.63 -15.16,14.71 -33.47,22.17 -54.43,22.17 -22.28,0 -40.97,-7.74 -55.57,-23.01 -14.48,-15.14 -21.81,-33.24 -21.81,-53.79 0,-21 7.57,-39.334 22.5,-54.478 14.96,-15.195 33.43,-22.902 54.88,-22.902" /><path
         id="path18"
         style="fill:#58a0dc;fill-opacity:1;fill-rule:nonzero;stroke:none"
         d="m 2615.7,623.52 -333.44,0 c 7.97,38.437 25.71,70.5 52.82,95.429 29.6,27.219 65.76,41.016 107.49,41.016 46.56,0 84.73,-14.902 116.71,-45.555 28.49,-27.336 47.44,-57.863 56.42,-90.89 z m 494.95,125.312 c 45.23,0 85.24,-15.762 118.9,-46.855 33.45,-30.899 50.4,-75.243 50.4,-131.817 0,-58.73 -17.18,-106.055 -51.05,-140.664 -34.3,-35.039 -73.93,-52.07 -121.18,-52.07 -44.38,0 -84.14,16.515 -118.18,49.082 -33.91,32.453 -51.11,77.238 -51.11,133.105 0,61.231 17.65,108.535 52.44,140.598 35.03,32.266 75.33,48.621 119.78,48.621 z M 3577,690.465 c 32.31,34.941 72.26,51.922 122.15,51.922 47.64,0 87.08,-16.668 120.59,-50.957 33.09,-33.867 49.88,-77.723 49.88,-130.352 0,-52.285 -16.51,-96.074 -49.08,-130.137 -32.91,-34.433 -72.62,-51.171 -121.39,-51.171 -48.03,0 -87.57,16.574 -120.88,50.664 -32.9,33.671 -49.59,77.629 -49.59,130.644 0,51.172 16.26,94.707 48.32,129.387 z m 591.9,0 c 32.3,34.941 72.25,51.922 122.14,51.922 47.64,0 87.09,-16.668 120.59,-50.957 33.1,-33.867 49.88,-77.723 49.88,-130.352 0,-52.285 -16.51,-96.074 -49.08,-130.137 -32.91,-34.433 -72.61,-51.171 -121.39,-51.171 -48.02,0 -87.56,16.574 -120.87,50.664 -32.9,33.671 -49.59,77.629 -49.59,130.644 0,51.172 16.26,94.707 48.32,129.387 z M 1787.36,376.84 c -46.35,0 -86.71,16.027 -119.97,47.637 -33.12,31.476 -49.92,77.531 -49.92,136.894 0,52.246 16.47,96.797 48.96,132.422 32.67,35.852 71.85,53.281 119.76,53.281 44.19,0 84.69,-15.359 120.38,-45.672 35.18,-29.882 53.01,-75.226 53.01,-134.757 0,-59.375 -17.59,-106.329 -52.28,-139.551 -34.81,-33.348 -75.16,-50.254 -119.94,-50.254 z m 3405.46,477.539 -323.47,0 0,-111.992 75.78,0 -173.56,-138.555 0,498.398 -233.28,0 0,-119.023 101.95,0 0,-596.992 -90.02,0 c 32.55,48.965 49.07,107.402 49.07,174.57 0,91.496 -30.63,166.789 -91.03,223.781 -60.25,56.825 -133.33,85.633 -217.22,85.633 -85.48,0 -159,-29.238 -218.48,-86.902 -37.47,-36.328 -63.37,-79.582 -77.36,-129.043 -14.12,50.469 -40.5,94.141 -78.83,130.312 -60.26,56.825 -133.33,85.633 -217.22,85.633 -85.49,0 -159,-29.238 -218.49,-86.902 -35.84,-34.758 -61.12,-75.84 -75.5,-122.59 -12.84,48.918 -36.58,91.133 -70.88,125.949 -54.64,55.438 -123.18,83.543 -203.7,83.543 -75.57,0 -141.27,-27.176 -195.67,-80.847 l 0,312.878 -229.76,0 0,-119.023 100.78,0 0,-596.992 -65.14,0 c 3.79,5.176 7.36,10.363 10.76,15.637 l 6.36,9.843 -10.72,4.727 -98.44,43.359 -7.39,3.25 -4.74,-6.531 c -43.74,-60.305 -101.46,-89.621 -176.47,-89.621 -50.66,0 -92.71,15.449 -124.97,45.91 -30.01,28.301 -49.25,65.215 -57.3,109.871 l 475.49,0 -0.22,10.215 c -2.4,110.969 -35.95,195.918 -99.75,252.48 -63.52,56.301 -135.44,84.844 -213.76,84.844 -79.99,0 -151.79,-29.297 -213.39,-87.078 -61.78,-57.949 -93.09,-132.754 -93.09,-222.336 0,-67.898 16.75,-126.316 49.75,-174.57 l -92,0 0,716.015 -240.31,0 0,-119.023 108.98,0 0,-190.293 c -55,51.309 -118.94,77.285 -190.39,77.285 -74.55,0 -142.3,-28.113 -201.38,-83.562 -59.24,-55.625 -89.28,-132.403 -89.28,-228.196 0,-95.488 29.3,-170.339 87.09,-222.461 57.49,-51.863 125.19,-78.164 201.23,-78.164 74.11,0 138.83,26.172 192.73,77.864 l 0,-68.489 233.28,0 0,105.391 c 10.63,-13.594 22.56,-26.355 35.98,-38.152 63.1,-55.5 140.14,-83.645 228.96,-83.645 57.06,0 112.5,12.442 164.8,36.985 30.66,14.394 58.34,33.574 82.55,57.168 l 0,-77.747 229.76,0 0,67.61 c 16.76,-16.738 38.93,-32.336 66.24,-46.555 38.74,-20.195 82.09,-30.43 128.84,-30.43 83.45,0 152.88,30.196 206.37,89.747 31.41,34.972 53.75,75.195 66.72,120.031 13.82,-49.61 39.5,-93.039 76.66,-129.563 58.89,-57.89 132.71,-87.246 219.41,-87.246 84.3,0 157.48,28.918 217.53,85.957 38.11,36.192 64.4,79.856 78.47,130.254 13.87,-49.363 39.48,-92.586 76.48,-128.965 58.9,-57.89 132.72,-87.246 219.41,-87.246 84.3,0 157.49,28.918 217.54,85.957 10.88,10.344 20.77,21.301 29.71,32.813 l 0,-102.364 331.13,0 0,119.024 -97.85,0 0,152.187 268.28,-268.281 2.93,-2.93 160.04,0 0,119.024 -105.48,0 -189.1,188.555 201.48,167.617 93.1,0 0,111.992 -10,0" /></g></g></svg>